<svg width="25" height="25" viewBox="0 0 25 25" fill="none" xmlns="http://www.w3.org/2000/svg">
<path d="M8.99994 9.49133C9.55222 9.49133 9.99994 9.93905 9.99994 10.4913V19.4913C9.99994 20.0436 9.55222 20.4913 8.99994 20.4913C8.44765 20.4913 7.99994 20.0436 7.99994 19.4913V10.4913C7.99994 9.93905 8.44765 9.49133 8.99994 9.49133Z" fill="#002EFF"/>
<path d="M15.9999 10.4913C15.9999 9.93905 15.5522 9.49133 14.9999 9.49133C14.4477 9.49133 13.9999 9.93905 13.9999 10.4913V19.4913C13.9999 20.0436 14.4477 20.4913 14.9999 20.4913C15.5522 20.4913 15.9999 20.0436 15.9999 19.4913V10.4913Z" fill="#002EFF"/>
<path fill-rule="evenodd" clip-rule="evenodd" d="M9.99994 0.474976C7.7908 0.474976 5.99994 2.26584 5.99994 4.47498V5.47498H2.99994V5.47913H1.01349C0.461204 5.47913 0.0134888 5.92684 0.0134888 6.47913C0.0134888 7.03141 0.461205 7.47913 1.01349 7.47913H2.99994V20.475C2.99994 22.6841 4.7908 24.475 6.99994 24.475H16.9999C19.2091 24.475 20.9999 22.6841 20.9999 20.475V7.47913H23.0135C23.5658 7.47913 24.0135 7.03141 24.0135 6.47913C24.0135 5.92684 23.5658 5.47913 23.0135 5.47913H20.9999V5.47498H17.9999V4.47498C17.9999 2.26584 16.2091 0.474976 13.9999 0.474976H9.99994ZM15.9999 5.47498V4.47498C15.9999 3.37041 15.1045 2.47498 13.9999 2.47498H9.99994C8.89537 2.47498 7.99994 3.37041 7.99994 4.47498V5.47498H15.9999ZM18.9999 7.47913H4.99994V20.475C4.99994 21.5795 5.89537 22.475 6.99994 22.475H16.9999C18.1045 22.475 18.9999 21.5795 18.9999 20.475V7.47913Z" fill="#002EFF"/>
</svg>
