<svg width="66" height="50" viewBox="0 0 66 50" fill="none" xmlns="http://www.w3.org/2000/svg">
<path fill-rule="evenodd" clip-rule="evenodd" d="M54.7758 1.68367C53.9268 1.12273 52.5989 1.21644 51.8325 1.87505L46.9518 6.1065C46.184 6.77039 46.2486 7.78272 47.0839 8.36741C47.0839 8.36741 54.6231 13.5901 54.6231 24.8313C54.6231 35.4878 46.6752 41.6291 46.6752 41.6291C45.8744 42.2468 45.8399 43.2947 46.6078 43.9599L51.4513 48.1228C52.2178 48.788 53.547 48.8685 54.4043 48.33C54.4043 48.33 65.7895 41.0061 65.7895 24.8696C65.7895 8.8452 54.7758 1.68367 54.7758 1.68367Z" fill="#FF3D00"/>
<path d="M14.3382 28.7992C14.3382 28.7992 13.0171 28.6768 13.0171 29.7081C13.0171 35.5341 17.5022 39.6862 24.5486 39.6862C29.779 39.6862 32.0126 38.4667 35.1714 36.1767C35.9104 35.6402 36.6982 35.1403 37.2958 35.7715C37.7121 36.2032 43.2613 41.1632 43.2613 41.1632C43.9566 41.7944 43.7664 42.548 43.021 43.1527C42.2808 43.7599 33.9827 50 24.447 50C11.9748 50 0 44.7459 0 24.9577C0 9.00598 9.3339 0 23.0282 0C37.7378 0 46.0526 9.94521 46.0526 23.357V26.7503C46.0526 28.1339 44.8934 28.7992 43.9373 28.7992H14.3382ZM31.8507 15.1968C30.4319 12.2933 27.4954 10.1283 23.0282 10.1283C18.5663 10.1283 15.6259 12.2933 14.2058 15.1968C13.3949 16.9806 13.0852 18.296 12.9837 20.4497H33.0715C32.9687 18.296 32.6616 16.9806 31.8507 15.1968Z" fill="white"/>
</svg>
